<?xml version="1.0" encoding="UTF-8" standalone="no"?>
<!-- Uploaded to: SVG Repo, www.svgrepo.com, Transformed by: SVG Repo Mixer Tools -->

<svg
   width="800px"
   height="800px"
   viewBox="0 0 24 24"
   fill="none"
   version="1.1"
   id="svg1"
   sodipodi:docname="walkpadspeed.svg"
   xml:space="preserve"
   inkscape:version="1.4.3 (0d15f75042, 2025-12-25)"
   xmlns:inkscape="http://www.inkscape.org/namespaces/inkscape"
   xmlns:sodipodi="http://sodipodi.sourceforge.net/DTD/sodipodi-0.dtd"
   xmlns="http://www.w3.org/2000/svg"
   xmlns:svg="http://www.w3.org/2000/svg"><defs
     id="defs1" /><sodipodi:namedview
     id="namedview1"
     pagecolor="#ffffff"
     bordercolor="#666666"
     borderopacity="1.0"
     inkscape:showpageshadow="2"
     inkscape:pageopacity="0.0"
     inkscape:pagecheckerboard="0"
     inkscape:deskcolor="#d1d1d1"
     inkscape:zoom="1.0730345"
     inkscape:cx="297.28773"
     inkscape:cy="444.99965"
     inkscape:window-width="1668"
     inkscape:window-height="1211"
     inkscape:window-x="2591"
     inkscape:window-y="459"
     inkscape:window-maximized="0"
     inkscape:current-layer="svg1" /><g
     id="SVGRepo_bgCarrier"
     stroke-width="0" /><g
     id="SVGRepo_tracerCarrier"
     stroke-linecap="round"
     stroke-linejoin="round" /><g
     id="SVGRepo_iconCarrier"
     transform="translate(-3.1313065,-0.25162284)"><path
       fill-rule="evenodd"
       clip-rule="evenodd"
       d="m 13,6 c 1.1046,0 2,-0.89543 2,-2 0,-1.10457 -0.8954,-2 -2,-2 -1.1045,0 -2,0.89543 -2,2 0,1.10457 0.8955,2 2,2 z m -1.9472,0.60557 c 0.3313,-0.16565 0.7271,-0.1346 1.0285,0.0807 l 1,0.71429 c 0.3181,0.22724 0.4746,0.61903 0.4007,1.00292 l -1.0488,5.44352 4.3989,6.5983 c 0.3063,0.4595 0.1822,1.0804 -0.2774,1.3868 -0.4595,0.3063 -1.0804,0.1821 -1.3867,-0.2774 L 10.5416,14.6152 9.72611,13.3919 C 9.58336,13.1778 9.52866,12.9169 9.57338,12.6634 L 10.1699,9.28309 8.38464,10.1757 7.81282,13.0334 C 7.70445,13.575 7.17759,13.9261 6.63604,13.8178 6.09449,13.7094 5.74333,13.1825 5.85169,12.641 L 6.51947,9.30379 C 6.58001,9.00123 6.77684,8.74356 7.05282,8.60557 Z m 5.631,6.34313 -2.8745,-0.9582 0.3816,-1.9809 3.1254,1.0417 c 0.5239,0.1747 0.8071,0.741 0.6324,1.2649 -0.1746,0.524 -0.7409,0.8072 -1.2649,0.6325 z m -10.55536,7.561 3.26793,-5.8096 0.31321,0.4698 0.93142,1.397 -2.76941,4.9234 C 7.60083,21.9716 6.99111,22.1423 6.50976,21.8716 6.0284,21.6008 5.85768,20.9911 6.12844,20.5097 Z"
       fill="#0a84ff"
       id="path1" /></g><g
     style="fill:none"
     id="g1"
     transform="matrix(0.54307849,0,0,0.49239323,-2.0566439,1.2318809)"><path
       d="m 6,44 h 34 l 4,-9"
       stroke="#0a84ff"
       stroke-width="4"
       stroke-miterlimit="2"
       stroke-linecap="round"
       stroke-linejoin="round"
       id="path4" /></g><g
     style="fill:none"
     id="g2"
     transform="matrix(0.37793242,0,0,0.37793242,15.248371,-0.67947614)"><path
       fill-rule="evenodd"
       clip-rule="evenodd"
       d="M 4,12 C 4,7.58172 7.58172,4 12,4 12.5523,4 13,3.55228 13,3 13,2.44772 12.5523,2 12,2 6.47715,2 2,6.47715 2,12 c 0,5.5228 4.47715,10 10,10 2.7611,0 5.2625,-1.1204 7.0711,-2.9289 0.3905,-0.3906 0.3905,-1.0237 0,-1.4142 -0.3906,-0.3906 -1.0237,-0.3906 -1.4142,0 C 16.208,19.1057 14.2094,20 12,20 7.58172,20 4,16.4183 4,12 Z M 13,6 C 13,5.44772 12.5523,5 12,5 11.4477,5 11,5.44772 11,6 v 6 c 0,0.2652 0.1054,0.5196 0.2929,0.7071 l 3,3 c 0.3905,0.3905 1.0237,0.3905 1.4142,0 0.3905,-0.3905 0.3905,-1.0237 0,-1.4142 L 13,11.5858 Z m 8.7483,9.1674 c -0.2133,0.6566 -0.9185,1.0159 -1.5751,0.8026 -0.6565,-0.2134 -1.0158,-0.9186 -0.8025,-1.5751 0.2133,-0.6566 0.9185,-1.0159 1.5751,-0.8026 0.6565,0.2134 1.0159,0.9185 0.8025,1.5751 z m -0.6636,-3.3407 c 0.6819,-0.108 1.1471,-0.7483 1.0391,-1.4301 -0.108,-0.68189 -0.7483,-1.1471 -1.4301,-1.0391 -0.6819,0.10799 -1.1471,0.7483 -1.0391,1.4302 0.108,0.6818 0.7483,1.147 1.4301,1.039 z M 20.2924,5.97522 c 0.4058,0.55851 0.282,1.34022 -0.2765,1.746 -0.5585,0.40578 -1.3402,0.28197 -1.746,-0.27654 -0.4058,-0.55851 -0.282,-1.34022 0.2765,-1.746 0.5585,-0.40578 1.3403,-0.28197 1.746,0.27654 z M 17.1997,4.54844 C 17.5131,3.93333 17.2685,3.18061 16.6534,2.86719 16.0383,2.55378 15.2856,2.79835 14.9722,3.41346 c -0.3134,0.61512 -0.0689,1.36783 0.5463,1.68125 0.6151,0.31341 1.3678,0.06884 1.6812,-0.54627 z"
       fill="#0a84ff"
       id="path1-3" /></g></svg>
